<svg width="40" height="40" viewBox="0 0 40 40" fill="none" xmlns="http://www.w3.org/2000/svg">
<path d="M20 20.0003C18.1666 20.0003 16.5972 19.3475 15.2916 18.042C13.9861 16.7364 13.3333 15.167 13.3333 13.3337C13.3333 11.5003 13.9861 9.93088 15.2916 8.62533C16.5972 7.31977 18.1666 6.66699 20 6.66699C21.8333 6.66699 23.4027 7.31977 24.7083 8.62533C26.0138 9.93088 26.6666 11.5003 26.6666 13.3337C26.6666 15.167 26.0138 16.7364 24.7083 18.042C23.4027 19.3475 21.8333 20.0003 20 20.0003ZM6.66663 33.3337V28.667C6.66663 27.7225 6.90968 26.8545 7.39579 26.0628C7.8819 25.2712 8.52774 24.667 9.33329 24.2503C11.0555 23.3892 12.8055 22.7434 14.5833 22.3128C16.3611 21.8823 18.1666 21.667 20 21.667C21.8333 21.667 23.6388 21.8823 25.4166 22.3128C27.1944 22.7434 28.9444 23.3892 30.6666 24.2503C31.4722 24.667 32.118 25.2712 32.6041 26.0628C33.0902 26.8545 33.3333 27.7225 33.3333 28.667V33.3337H6.66663ZM9.99996 30.0003H30V28.667C30 28.3614 29.9236 28.0837 29.7708 27.8337C29.618 27.5837 29.4166 27.3892 29.1666 27.2503C27.6666 26.5003 26.1527 25.9378 24.625 25.5628C23.0972 25.1878 21.5555 25.0003 20 25.0003C18.4444 25.0003 16.9027 25.1878 15.375 25.5628C13.8472 25.9378 12.3333 26.5003 10.8333 27.2503C10.5833 27.3892 10.3819 27.5837 10.2291 27.8337C10.0763 28.0837 9.99996 28.3614 9.99996 28.667V30.0003ZM20 16.667C20.9166 16.667 21.7013 16.3406 22.3541 15.6878C23.0069 15.035 23.3333 14.2503 23.3333 13.3337C23.3333 12.417 23.0069 11.6323 22.3541 10.9795C21.7013 10.3267 20.9166 10.0003 20 10.0003C19.0833 10.0003 18.2986 10.3267 17.6458 10.9795C16.993 11.6323 16.6666 12.417 16.6666 13.3337C16.6666 14.2503 16.993 15.035 17.6458 15.6878C18.2986 16.3406 19.0833 16.667 20 16.667Z" fill="white"/>
</svg>
