<svg width="257" height="73" viewBox="0 0 257 73" fill="none" xmlns="http://www.w3.org/2000/svg">
<path d="M75.4219 72.2C72.9552 72.2 70.9552 71.3333 69.4219 69.6C67.8885 67.8 67.1219 65.4 67.1219 62.4C67.1219 59.3333 68.4885 51.7667 71.2219 39.7C74.0219 27.6333 75.4219 19.9333 75.4219 16.6C75.4219 13.2667 74.1219 11.6 71.5219 11.6C67.9219 11.6 63.9552 13.2 59.6219 16.4C59.1552 20 57.7885 26.3 55.5219 35.3C53.2552 44.2333 51.7219 50.8667 50.9219 55.2C50.1885 59.4667 49.8219 62.7667 49.8219 65.1C49.8219 67.4333 49.8552 68.8667 49.9219 69.4C47.3219 70.7333 42.6885 71.4 36.0219 71.4H34.1219C34.1219 65.8 35.6885 56.2667 38.8219 42.8C42.0219 29.0667 43.6219 20.4333 43.6219 16.9C43.6219 13.3667 42.3885 11.6 39.9219 11.6C36.3219 11.6 32.1219 13.3333 27.3219 16.8C26.5885 20.4667 25.2219 26.4333 23.2219 34.7C18.7552 53.6333 16.5219 65.2 16.5219 69.4C13.9219 70.7333 9.32188 71.4 2.72188 71.4H0.821875C1.08854 68.4 2.85521 59.6 6.12188 45C9.38854 30.3333 11.4219 19.3667 12.2219 12.1C12.2219 11.0333 11.8552 9.76666 11.1219 8.3C10.4552 6.76666 9.75521 5.53333 9.02188 4.6L8.02188 3.2L8.32188 1.7C12.0552 0.566664 18.4885 -3.8147e-06 27.6219 -3.8147e-06C28.4885 1.6 28.9219 3.63333 28.9219 6.1C28.9219 6.63333 28.7885 8.03333 28.5219 10.3C36.1885 3.43333 43.0552 -3.8147e-06 49.1219 -3.8147e-06C51.8552 -3.8147e-06 54.1552 0.933329 56.0219 2.8C57.8885 4.66666 59.0885 7.1 59.6219 10.1C67.5552 3.36666 74.2885 -3.8147e-06 79.8219 -3.8147e-06C83.2885 -3.8147e-06 86.0885 1.13333 88.2219 3.39999C90.3552 5.66666 91.4219 8.83333 91.4219 12.9C91.4219 16.9667 89.9885 24.7333 87.1219 36.2C84.3219 47.6 82.9219 55.5667 82.9219 60.1C82.9219 62.0333 83.2552 63 83.9219 63C84.5219 63 86.1552 62.3333 88.8219 61L90.2219 60.4L92.2219 64.1C89.3552 66.5667 86.4552 68.5333 83.5219 70C80.6552 71.4667 77.9552 72.2 75.4219 72.2ZM19.2219 32C19.1552 32.1333 19.1219 32.3 19.1219 32.5L19.2219 32ZM118.295 72.2C113.628 72.2 109.161 70.8667 104.895 68.2C102.761 66.8667 100.995 65 99.5945 62.6C98.2612 60.2 97.5945 57.4333 97.5945 54.3C97.5945 48.3667 99.5612 43.5333 103.495 39.8C107.428 36.0667 112.161 33.9 117.695 33.3C113.961 32.3 110.961 30.5667 108.695 28.1C106.495 25.6333 105.395 22.5 105.395 18.7C105.395 12.9667 107.628 8.43333 112.095 5.1C116.628 1.7 121.795 -3.8147e-06 127.595 -3.8147e-06C133.395 -3.8147e-06 138.228 1.23333 142.095 3.7C145.961 6.16666 147.895 9.5 147.895 13.7C147.895 15.1667 147.628 16.6 147.095 18C146.628 19.4 146.128 20.4 145.595 21L144.895 22C142.761 22 140.395 21.6333 137.795 20.9C135.261 20.1667 133.395 19.2333 132.195 18.1L133.395 7.8C132.395 6.8 130.695 6.3 128.295 6.3C125.961 6.3 124.095 7.53333 122.695 10C121.361 12.4 120.695 15.1667 120.695 18.3C120.695 21.4333 121.061 23.8 121.795 25.4C122.528 27 123.561 28.2333 124.895 29.1C126.961 30.4333 129.395 31.3667 132.195 31.9L131.395 37.4C126.595 37.4 122.428 38.8333 118.895 41.7C115.361 44.5 113.595 48.2333 113.595 52.9C113.595 55.8333 114.528 58.2667 116.395 60.2C118.328 62.0667 120.795 63 123.795 63C129.261 63 134.861 60.2333 140.595 54.7L144.595 58.4C136.861 67.6 128.095 72.2 118.295 72.2ZM168.359 0.499996L187.959 1.09999L198.259 0.899997C198.459 1.9 198.559 3.23333 198.559 4.9C198.559 6.56666 198.293 7.76666 197.759 8.5C197.293 9.23333 196.459 9.6 195.259 9.6C194.059 9.6 191.493 9.43333 187.559 9.1C183.693 8.76667 180.826 8.6 178.959 8.6L175.359 8.8C175.093 11.3333 173.493 19.4333 170.559 33.1C175.626 32.6333 179.859 32.4 183.259 32.4C186.659 32.4 189.293 32.6667 191.159 33.2C191.026 36 190.426 38.4 189.359 40.4C186.493 39.8 183.093 39.5 179.159 39.5C175.226 39.5 171.893 39.7 169.159 40.1C166.693 52.1667 165.459 61.3333 165.459 67.6V69.3C163.059 70.6333 157.993 71.3 150.259 71.3H149.259C149.259 66.7667 150.793 57.3333 153.859 43C156.993 28.6667 158.893 18.3667 159.559 12.1C159.559 11.0333 159.226 9.76666 158.559 8.3C157.893 6.76666 157.193 5.53333 156.459 4.6L155.459 3.2L155.759 1.7C159.359 0.966662 163.559 0.566662 168.359 0.499996ZM250.804 8.8C252.604 11.4667 253.937 14.3 254.804 17.3C255.671 20.2333 256.104 23.5 256.104 27.1C256.104 30.7 255.704 34.5333 254.904 38.6C254.104 42.6667 252.771 46.7333 250.904 50.8C249.037 54.8667 246.771 58.4667 244.104 61.6C241.437 64.7333 238.071 67.3 234.004 69.3C229.937 71.2333 225.471 72.2 220.604 72.2C213.471 72.2 207.937 69.6667 204.004 64.6C200.071 59.4667 198.104 52.9 198.104 44.9C198.104 36.8333 199.504 29.4667 202.304 22.8C205.171 16.0667 209.237 10.6 214.504 6.4C219.837 2.13333 225.737 -3.8147e-06 232.204 -3.8147e-06C236.471 -3.8147e-06 240.204 0.799996 243.404 2.4C246.604 3.99999 249.071 6.13333 250.804 8.8ZM223.604 65.4C226.737 65.4 229.371 64.0333 231.504 61.3C233.704 58.5667 235.371 55 236.504 50.6C238.771 41.9333 239.904 33.0333 239.904 23.9C239.904 12.5 236.837 6.8 230.704 6.8C227.237 6.8 224.204 8.86666 221.604 13C216.737 20.8 214.304 31.6 214.304 45.4C214.304 52.9333 214.737 57.6 215.604 59.4C216.004 60.4 216.537 61.4333 217.204 62.5C218.404 64.4333 220.537 65.4 223.604 65.4Z" fill="#75CF7B"/>
</svg>
