<svg width="206" height="58" viewBox="0 0 206 58" fill="none" xmlns="http://www.w3.org/2000/svg">
<path d="M60.6375 57.96C58.6642 57.96 57.0642 57.2667 55.8375 55.88C54.6108 54.44 53.9975 52.52 53.9975 50.12C53.9975 47.6667 55.0908 41.6133 57.2775 31.96C59.5175 22.3067 60.6375 16.1467 60.6375 13.48C60.6375 10.8133 59.5975 9.48 57.5175 9.48C54.6375 9.48 51.4642 10.76 47.9975 13.32C47.6242 16.2 46.5308 21.24 44.7175 28.44C42.9042 35.5867 41.6775 40.8933 41.0375 44.36C40.4508 47.7733 40.1575 50.4133 40.1575 52.28C40.1575 54.1467 40.1842 55.2933 40.2375 55.72C38.1575 56.7867 34.4508 57.32 29.1175 57.32H27.5975C27.5975 52.84 28.8508 45.2133 31.3575 34.44C33.9175 23.4533 35.1975 16.5467 35.1975 13.72C35.1975 10.8933 34.2108 9.48 32.2375 9.48C29.3575 9.48 25.9975 10.8667 22.1575 13.64C21.5708 16.5733 20.4775 21.3467 18.8775 27.96C15.3042 43.1067 13.5175 52.36 13.5175 55.72C11.4375 56.7867 7.7575 57.32 2.4775 57.32H0.9575C1.17083 54.92 2.58417 47.88 5.1975 36.2C7.81083 24.4667 9.4375 15.6933 10.0775 9.88C10.0775 9.02666 9.78417 8.01333 9.1975 6.84C8.66417 5.61333 8.10417 4.62666 7.5175 3.88L6.7175 2.76L6.9575 1.56C9.94417 0.653331 15.0908 0.199997 22.3975 0.199997C23.0908 1.48 23.4375 3.10666 23.4375 5.08C23.4375 5.50666 23.3308 6.62666 23.1175 8.44C29.2508 2.94666 34.7442 0.199997 39.5975 0.199997C41.7842 0.199997 43.6242 0.946664 45.1175 2.44C46.6108 3.93333 47.5708 5.88 47.9975 8.28C54.3442 2.89333 59.7308 0.199997 64.1575 0.199997C66.9308 0.199997 69.1708 1.10666 70.8775 2.92C72.5842 4.73333 73.4375 7.26666 73.4375 10.52C73.4375 13.7733 72.2908 19.9867 69.9975 29.16C67.7575 38.28 66.6375 44.6533 66.6375 48.28C66.6375 49.8267 66.9042 50.6 67.4375 50.6C67.9175 50.6 69.2242 50.0667 71.3575 49L72.4775 48.52L74.0775 51.48C71.7842 53.4533 69.4642 55.0267 67.1175 56.2C64.8242 57.3733 62.6642 57.96 60.6375 57.96ZM15.6775 25.8C15.6242 25.9067 15.5975 26.04 15.5975 26.2L15.6775 25.8ZM94.9356 57.96C91.2023 57.96 87.629 56.8933 84.2156 54.76C82.509 53.6933 81.0956 52.2 79.9756 50.28C78.909 48.36 78.3756 46.1467 78.3756 43.64C78.3756 38.8933 79.949 35.0267 83.0956 32.04C86.2423 29.0533 90.029 27.32 94.4556 26.84C91.469 26.04 89.069 24.6533 87.2556 22.68C85.4956 20.7067 84.6156 18.2 84.6156 15.16C84.6156 10.5733 86.4023 6.94666 89.9756 4.28C93.6023 1.56 97.7356 0.199997 102.376 0.199997C107.016 0.199997 110.882 1.18666 113.976 3.16C117.069 5.13333 118.616 7.8 118.616 11.16C118.616 12.3333 118.402 13.48 117.976 14.6C117.602 15.72 117.202 16.52 116.776 17L116.216 17.8C114.509 17.8 112.616 17.5067 110.536 16.92C108.509 16.3333 107.016 15.5867 106.056 14.68L107.016 6.44C106.216 5.64 104.856 5.24 102.936 5.24C101.069 5.24 99.5756 6.22667 98.4556 8.2C97.389 10.12 96.8556 12.3333 96.8556 14.84C96.8556 17.3467 97.149 19.24 97.7356 20.52C98.3223 21.8 99.149 22.7867 100.216 23.48C101.869 24.5467 103.816 25.2933 106.056 25.72L105.416 30.12C101.576 30.12 98.2423 31.2667 95.4156 33.56C92.589 35.8 91.1756 38.7867 91.1756 42.52C91.1756 44.8667 91.9223 46.8133 93.4156 48.36C94.9623 49.8533 96.9356 50.6 99.3356 50.6C103.709 50.6 108.189 48.3867 112.776 43.96L115.976 46.92C109.789 54.28 102.776 57.96 94.9356 57.96ZM134.988 0.599997L150.668 1.08L158.908 0.919997C159.068 1.72 159.148 2.78666 159.148 4.12C159.148 5.45333 158.934 6.41333 158.508 7C158.134 7.58667 157.468 7.88 156.508 7.88C155.548 7.88 153.494 7.74667 150.348 7.48C147.254 7.21333 144.961 7.08 143.468 7.08L140.588 7.24C140.374 9.26666 139.094 15.7467 136.747 26.68C140.801 26.3067 144.188 26.12 146.908 26.12C149.628 26.12 151.734 26.3333 153.228 26.76C153.121 29 152.641 30.92 151.788 32.52C149.494 32.04 146.774 31.8 143.628 31.8C140.481 31.8 137.814 31.96 135.628 32.28C133.654 41.9333 132.668 49.2667 132.668 54.28V55.64C130.748 56.7067 126.694 57.24 120.508 57.24H119.708C119.708 53.6133 120.934 46.0667 123.388 34.6C125.894 23.1333 127.414 14.8933 127.947 9.88C127.947 9.02666 127.681 8.01333 127.148 6.84C126.614 5.61333 126.054 4.62666 125.468 3.88L124.668 2.76L124.908 1.56C127.788 0.97333 131.148 0.653329 134.988 0.599997ZM200.943 7.24C202.383 9.37333 203.45 11.64 204.143 14.04C204.836 16.3867 205.183 19 205.183 21.88C205.183 24.76 204.863 27.8267 204.223 31.08C203.583 34.3333 202.516 37.5867 201.023 40.84C199.53 44.0933 197.716 46.9733 195.583 49.48C193.45 51.9867 190.756 54.04 187.503 55.64C184.25 57.1867 180.676 57.96 176.783 57.96C171.076 57.96 166.65 55.9333 163.503 51.88C160.356 47.7733 158.783 42.52 158.783 36.12C158.783 29.6667 159.903 23.7733 162.143 18.44C164.436 13.0533 167.69 8.68 171.903 5.32C176.17 1.90666 180.89 0.199997 186.063 0.199997C189.476 0.199997 192.463 0.839997 195.023 2.12C197.583 3.4 199.556 5.10666 200.943 7.24ZM179.183 52.52C181.69 52.52 183.796 51.4267 185.503 49.24C187.263 47.0533 188.596 44.2 189.503 40.68C191.316 33.7467 192.223 26.6267 192.223 19.32C192.223 10.2 189.77 5.64 184.863 5.64C182.09 5.64 179.663 7.29333 177.583 10.6C173.69 16.84 171.743 25.48 171.743 36.52C171.743 42.5467 172.09 46.28 172.783 47.72C173.103 48.52 173.53 49.3467 174.063 50.2C175.023 51.7467 176.73 52.52 179.183 52.52Z" fill="black"/>
</svg>
