<svg width="30" height="28" viewBox="0 0 30 28" fill="none" xmlns="http://www.w3.org/2000/svg">
<path d="M26.0499 4.76283C25.4115 4.12408 24.6534 3.61739 23.8191 3.27168C22.9848 2.92598 22.0905 2.74805 21.1874 2.74805C20.2843 2.74805 19.39 2.92598 18.5557 3.27168C17.7214 3.61739 16.9634 4.12408 16.3249 4.76283L14.9999 6.08783L13.6749 4.76283C12.3853 3.47321 10.6362 2.74872 8.8124 2.74872C6.98861 2.74872 5.23952 3.47321 3.9499 4.76283C2.66029 6.05244 1.93579 7.80154 1.93579 9.62533C1.93579 11.4491 2.66029 13.1982 3.9499 14.4878L14.9999 25.5378L26.0499 14.4878C26.6886 13.8494 27.1953 13.0913 27.541 12.257C27.8868 11.4227 28.0647 10.5284 28.0647 9.62533C28.0647 8.72222 27.8868 7.82796 27.541 6.99363C27.1953 6.15931 26.6886 5.40127 26.0499 4.76283Z" stroke="black" stroke-width="4" stroke-linecap="round" stroke-linejoin="round"/>
</svg>
