<svg width="30" height="30" viewBox="0 0 30 30" fill="none" xmlns="http://www.w3.org/2000/svg">
<g clip-path="url(#clip0_154_1067)">
<path d="M26.0499 5.76283C25.4115 5.12408 24.6534 4.61739 23.8191 4.27168C22.9848 3.92598 22.0905 3.74805 21.1874 3.74805C20.2843 3.74805 19.39 3.92598 18.5557 4.27168C17.7214 4.61739 16.9634 5.12408 16.3249 5.76283L14.9999 7.08783L13.6749 5.76283C12.3853 4.47321 10.6362 3.74872 8.8124 3.74872C6.98861 3.74872 5.23952 4.47321 3.9499 5.76283C2.66029 7.05244 1.93579 8.80154 1.93579 10.6253C1.93579 12.4491 2.66029 14.1982 3.9499 15.4878L14.9999 26.5378L26.0499 15.4878C26.6886 14.8494 27.1953 14.0913 27.541 13.257C27.8868 12.4227 28.0647 11.5284 28.0647 10.6253C28.0647 9.72222 27.8868 8.82796 27.541 7.99363C27.1953 7.15931 26.6886 6.40127 26.0499 5.76283Z" fill="#FF0000" stroke="#FF0000" stroke-width="4" stroke-linecap="round" stroke-linejoin="round"/>
</g>
<defs>
<clipPath id="clip0_154_1067">
<rect width="30" height="30" fill="white"/>
</clipPath>
</defs>
</svg>
