<svg width="25" height="25" viewBox="0 0 25 25" fill="none" xmlns="http://www.w3.org/2000/svg">
<path fill-rule="evenodd" clip-rule="evenodd" d="M3.72164 2.5L2.34766 3.85157L20.0285 21.25L21.4025 19.898L3.72164 2.5Z" fill="black" fill-opacity="0.6"/>
<path d="M5.2504 6.70775L6.54364 7.9803C5.12795 9.16642 4.00064 10.6428 3.27216 11.9346L3.26994 11.939C5.29876 15.2769 8.51789 18.4314 12.5808 17.9529C13.6776 17.8237 14.7006 17.4548 15.6354 16.927L16.9446 18.2149C15.1225 19.3656 13.0338 19.9751 10.7708 19.6738C6.69005 19.1308 3.35335 15.8374 1.25 11.9695C2.23757 10.0142 3.58848 8.14358 5.2504 6.70775ZM8.19181 4.82183C9.33288 4.32154 10.5676 4.02731 11.8861 4.00635C11.9593 4.00591 12.8284 4.04651 13.2224 4.11025C13.4695 4.15041 13.7157 4.20062 13.9584 4.26305C17.8292 5.25533 20.697 8.47536 22.5 11.7927C21.7436 13.2958 20.7529 14.7626 19.5715 16.0194L18.3173 14.7853C19.1899 13.8598 19.9175 12.8295 20.4778 11.8303C20.4778 11.8303 19.9144 10.9388 19.4872 10.3792C19.2125 10.0194 18.9237 9.67021 18.6203 9.33362C18.3807 9.0682 17.4504 8.16671 17.229 7.97899C15.7436 6.72215 13.9996 5.73598 11.9078 5.75257C11.0977 5.76523 10.3187 5.92239 9.57911 6.18694L8.19181 4.82183Z" fill="black" fill-opacity="0.6"/>
<path fill-rule="evenodd" clip-rule="evenodd" d="M8.77088 10.1725L9.76923 11.1545L13.612 14.9358C13.0983 15.2195 12.5055 15.3811 11.8751 15.3811C9.91195 15.3811 8.31836 13.813 8.31836 11.8812C8.31836 11.2609 8.48295 10.6781 8.77088 10.1725ZM11.8094 8.38222C11.8312 8.38178 11.8534 8.38135 11.8751 8.38135C13.8383 8.38135 15.4319 9.94989 15.4319 11.8812C15.4319 11.903 15.4319 11.9244 15.4314 11.9458L11.8094 8.38222Z" fill="black" fill-opacity="0.6"/>
</svg>
