<svg width="25" height="25" viewBox="0 0 25 25" fill="none" xmlns="http://www.w3.org/2000/svg">
<path fill-rule="evenodd" clip-rule="evenodd" d="M12.0325 3.7501C16.7237 3.81772 20.5723 8.1031 22.5 11.7903C22.5 11.7903 21.8217 13.2008 21.1855 14.1036C20.8776 14.5404 20.5537 14.9659 20.2134 15.3775C19.9707 15.6705 19.7201 15.9558 19.4601 16.233C17.1367 18.7122 13.8 20.5617 10.2765 19.8436C6.36219 19.0458 3.16923 15.638 1.25 11.9729C1.25 11.9729 1.93145 10.5611 2.57119 9.65958C2.85779 9.25524 3.15859 8.86173 3.47358 8.47994C3.71493 8.18739 3.96514 7.90206 4.22379 7.62484C6.27657 5.42693 8.91052 3.73478 12.0325 3.7501ZM12.0161 5.55315C9.40298 5.54323 7.22997 7.02578 5.51083 8.86624C5.27702 9.11641 5.05165 9.37425 4.83337 9.63839C4.54633 9.98638 4.27215 10.3456 4.01084 10.7139C3.74953 11.0817 3.48157 11.546 3.26906 11.9404C4.96114 14.8294 7.50104 17.4388 10.6257 18.0757C13.5374 18.6694 16.2547 17.0385 18.1748 14.9898C18.4095 14.7397 18.6362 14.4814 18.8554 14.2168C19.166 13.8413 19.4614 13.4532 19.7423 13.0543C20.0022 12.6851 20.2698 12.2199 20.4818 11.825C18.7259 8.83874 15.7215 5.61175 12.0161 5.55315Z" fill="black" fill-opacity="0.6"/>
<path fill-rule="evenodd" clip-rule="evenodd" d="M11.8751 8.26758C13.8383 8.26758 15.4323 9.88716 15.4323 11.8813C15.4323 13.8759 13.8383 15.4951 11.8751 15.4951C9.9124 15.4951 8.31836 13.8759 8.31836 11.8813C8.31836 9.88716 9.9124 8.26758 11.8751 8.26758Z" fill="black" fill-opacity="0.6"/>
</svg>
